<?xml version="1.0" standalone="no"?>
<!DOCTYPE svg PUBLIC "-//W3C//DTD SVG 20010904//EN"
 "http://www.w3.org/TR/2001/REC-SVG-20010904/DTD/svg10.dtd">
<svg version="1.0" xmlns="http://www.w3.org/2000/svg"
 width="864.000000pt" height="400.000000pt" viewBox="0 0 864.000000 400.000000"
 preserveAspectRatio="xMidYMid meet">

<g transform="translate(0.000000,400.000000) scale(0.100000,-0.100000)"
fill="#000000" stroke="none">
<path d="M110 3983 c0 -10 127 -146 283 -303 l283 -285 -7 -320 c-4 -176 -10
-426 -13 -555 -3 -129 -13 -610 -23 -1069 l-17 -833 -305 -299 c-206 -202
-302 -302 -295 -309 7 -7 118 -9 310 -8 275 3 299 4 302 21 2 10 -3 17 -12 17
-9 0 -16 7 -16 15 0 8 -8 15 -17 16 -16 0 -15 1 2 8 16 7 14 9 -14 14 -19 4
-49 7 -69 7 -19 0 -32 3 -28 7 4 5 276 10 604 13 l597 5 12 620 c13 646 25
982 31 830 3 -73 10 -94 35 -95 4 0 7 15 8 33 1 61 27 -61 32 -153 3 -47 3
-73 1 -58 -5 24 -10 28 -40 28 l-34 0 0 -74 0 -73 39 2 c32 2 38 -1 34 -13 -5
-12 -1 -14 19 -9 26 7 26 6 46 -96 14 -75 20 -91 21 -61 0 22 5 44 10 50 9 9
17 321 26 1039 3 231 8 472 11 535 3 63 3 112 -2 108 -4 -4 -13 0 -21 10 -8 9
-12 12 -9 5 4 -6 2 -14 -4 -18 -6 -4 -10 5 -10 22 0 28 -56 103 -76 103 -8 0
-12 -103 -13 -317 -1 -175 -6 -323 -9 -330 -5 -8 -12 -9 -22 -3 -12 7 -12 11
0 25 12 14 12 18 0 25 -18 11 -17 13 -21 -43 -4 -47 -3 -49 29 -62 36 -16 40
-11 15 17 -22 24 -2 23 24 -2 20 -18 22 -60 2 -60 -4 0 -10 -12 -12 -27 -4
-27 -4 -27 -6 3 0 19 -8 34 -17 38 -37 14 -41 8 -43 -71 -1 -42 -4 -80 -7 -83
-3 -3 -4 34 -2 83 2 48 0 87 -3 87 -4 0 -5 37 -2 83 2 45 5 226 6 402 l2 320
173 3 c96 1 172 -1 172 -6 0 -5 -18 -40 -39 -78 l-39 -69 -6 -285 c-6 -257 -5
-283 9 -265 14 18 15 18 9 -13 -9 -44 -1 -40 30 13 l27 45 89 0 c85 0 93 2
170 42 64 33 94 43 143 46 34 2 57 0 50 -5 -14 -10 -30 -433 -16 -433 16 0
318 293 317 307 -6 50 98 -56 148 -152 20 -38 39 -88 43 -110 3 -22 11 -56 16
-76 15 -47 -11 -175 -52 -259 -34 -70 -104 -143 -172 -180 -36 -18 -49 -22
-58 -13 -9 9 -6 11 12 7 20 -5 21 -4 9 6 -12 9 -11 10 8 5 17 -5 22 -3 20 7
-2 8 23 41 55 73 32 33 73 85 92 115 31 52 61 128 53 134 -1 2 -43 13 -93 25
-49 13 -106 27 -125 32 -19 5 -87 20 -150 33 -63 13 -140 35 -170 49 -49 23
-160 69 -301 127 -26 10 -50 16 -53 13 -11 -11 -6 17 8 51 8 19 31 53 53 77
38 43 38 43 7 24 -18 -11 -58 -41 -90 -66 -49 -38 -63 -56 -82 -107 -13 -34
-26 -86 -29 -117 l-6 -55 31 0 c17 0 33 6 35 13 3 6 5 -22 5 -63 0 -41 -2 -69
-5 -63 -3 10 -10 9 -27 -2 -12 -8 -26 -12 -29 -8 -12 11 -8 -37 9 -101 26
-102 90 -211 170 -293 70 -70 104 -88 120 -61 5 7 2 9 -9 5 -14 -5 -14 -2 -2
32 8 24 10 43 4 54 -8 13 -6 15 8 10 10 -3 23 -9 28 -13 26 -18 167 -58 230
-65 39 -4 65 -10 58 -12 -14 -5 -7 -91 8 -107 24 -26 229 19 288 63 l25 19
-43 41 c-23 23 -48 41 -54 41 -6 0 2 10 17 23 80 62 125 106 170 164 47 60 50
62 63 43 8 -11 19 -20 24 -20 12 0 58 -51 59 -65 0 -6 -11 -27 -25 -48 -14
-20 -23 -37 -21 -37 3 0 18 18 32 40 15 22 32 40 39 40 22 0 68 144 80 250 9
76 -23 228 -67 316 l-34 69 -124 63 -123 62 86 0 c81 0 88 -2 103 -25 9 -14
23 -25 30 -25 8 0 14 -7 14 -16 0 -8 6 -22 14 -30 8 -7 16 -18 18 -23 1 -5 15
-12 29 -16 l26 -6 6 298 c4 248 3 300 -9 309 -8 6 -14 20 -14 31 0 12 -25 47
-55 78 -30 32 -55 54 -55 48 0 -6 12 -23 26 -38 l26 -28 -7 -296 c-4 -163 -9
-298 -12 -301 -3 -3 -3 117 -2 265 2 149 0 276 -4 283 -5 6 -17 12 -28 12 -18
0 -19 7 -18 75 l1 75 179 -2 c99 0 179 -3 179 -5 0 -2 -20 -34 -44 -71 -25
-37 -46 -80 -47 -97 -7 -93 2 -458 11 -445 8 13 10 12 10 -2 0 -10 7 -18 15
-18 8 0 15 -5 15 -11 0 -5 5 -7 10 -4 6 3 10 49 10 102 0 53 2 94 4 92 11 -11
17 -723 10 -1088 -5 -229 -10 -377 -12 -329 -3 87 -3 88 -33 104 -30 15 -31
15 -23 -8 6 -20 5 -21 -10 -9 -15 12 -16 -7 -16 -258 l0 -271 -306 -304 c-174
-173 -303 -309 -300 -315 5 -8 271 -11 902 -11 l894 0 1 573 c0 314 3 721 5
902 3 210 0 364 -7 425 -8 66 -9 175 -3 360 5 155 10 225 12 168 2 -75 6 -98
17 -98 7 0 15 6 17 12 3 7 5 -5 6 -26 3 -67 12 -53 13 20 1 38 4 96 8 129 4
40 10 -51 19 -275 7 -184 15 -355 17 -380 4 -37 3 -41 -6 -24 -10 20 -13 21
-37 8 -33 -17 -40 -35 -41 -101 -2 -111 93 -449 135 -484 12 -10 13 -8 4 15
-17 46 -10 43 16 -7 l24 -47 36 32 c27 25 34 37 29 56 -10 41 8 17 79 -101
102 -173 215 -317 362 -464 73 -73 121 -127 107 -120 -22 10 -28 8 -51 -19
-15 -17 -33 -29 -41 -26 -50 17 105 -108 237 -191 53 -33 150 -86 216 -118 67
-32 118 -59 114 -59 -30 -1 -285 128 -398 202 -40 26 -34 19 23 -28 9 -7 20
-14 24 -14 3 0 14 -7 23 -15 10 -9 78 -46 153 -84 179 -91 455 -182 542 -180
29 1 29 1 5 9 -22 7 -22 8 -5 11 11 1 25 2 32 2 6 0 13 17 15 39 3 31 -1 43
-17 55 -19 13 -18 14 15 9 161 -26 350 -37 520 -31 153 5 182 4 169 -7 -10 -8
-16 -27 -15 -53 l1 -40 45 3 c62 4 220 45 337 87 638 231 1134 779 1297 1433
38 151 46 223 49 417 2 195 -10 722 -20 848 -6 76 -6 77 -33 77 -57 0 -62 9
-30 48 45 57 79 142 92 228 9 66 8 91 -5 154 -46 213 -81 293 -162 375 -71 70
-132 100 -290 140 -233 59 -370 43 -526 -61 -155 -102 -326 -343 -334 -469 -2
-24 -6 -49 -10 -56 -5 -7 -4 -10 3 -5 5 3 13 0 15 -6 3 -7 6 1 7 17 1 26 3 27
10 10 8 -18 9 -17 9 8 1 41 17 25 24 -24 3 -22 7 -43 9 -45 6 -5 100 26 116
39 17 13 26 2 41 -53 40 -143 150 -280 276 -342 l70 -34 200 -3 c110 -1 216
-5 235 -8 33 -6 34 -6 10 -15 -24 -9 -24 -10 -6 -24 11 -8 25 -14 32 -14 7 0
16 -9 19 -20 3 -11 12 -20 20 -20 7 0 15 -5 17 -11 3 -9 10 -9 26 0 12 6 22 9
22 6 0 -3 -59 -70 -130 -149 l-130 -143 -4 -239 c-2 -195 -7 -256 -23 -329
-63 -281 -191 -524 -380 -725 -84 -89 -203 -189 -293 -245 -124 -78 -332 -165
-465 -194 -27 -6 -72 -15 -100 -22 -93 -21 -319 -23 -444 -4 -250 37 -434 103
-634 229 -237 149 -431 361 -555 606 -65 129 -80 166 -117 295 -47 164 -54
246 -61 783 -6 443 -11 551 -20 469 -1 -12 -3 -53 -5 -92 -1 -38 -4 -57 -6
-41 -4 26 -7 28 -39 23 -19 -3 -34 -2 -34 4 0 5 -7 9 -16 9 -9 0 -12 -5 -8
-12 4 -7 3 -8 -5 -4 -6 4 -19 2 -28 -6 -14 -11 -16 -11 -11 3 5 12 0 16 -20
15 -19 -1 -26 4 -24 14 1 10 -2 9 -13 -4 -8 -11 -15 -15 -15 -9 0 17 -40 23
-47 7 -3 -8 -9 -11 -14 -8 -5 3 -7 10 -4 15 4 5 -7 9 -24 9 -16 0 -33 5 -37
11 -4 8 -9 7 -15 -2 -6 -11 -9 -10 -15 4 -12 33 -24 17 -25 -35 -1 -29 -5 -64
-9 -78 -7 -21 -8 -17 -9 20 -1 25 -4 190 -8 368 l-6 322 89 -1 c49 -1 149 -4
223 -8 124 -5 137 -4 160 13 25 19 128 111 316 281 48 44 92 82 96 83 5 2 9
-286 9 -640 0 -1056 8 -1291 47 -1428 194 -679 1001 -1003 1580 -634 121 77
265 240 337 381 104 203 116 290 107 781 l-6 353 36 35 c36 36 37 36 105 30
79 -6 53 3 -86 29 -47 8 -105 22 -129 30 -25 8 -67 15 -95 15 -52 0 -87 -12
-68 -24 11 -6 18 -85 27 -306 4 -74 8 -137 11 -139 2 -2 4 1 4 7 0 7 5 12 11
12 26 0 81 35 94 59 10 19 15 22 18 11 10 -28 17 -455 8 -468 -7 -11 -9 -11
-14 1 -5 13 -11 13 -46 1 -22 -7 -47 -11 -55 -8 -15 6 -23 -14 -51 -133 -9
-39 -23 -74 -31 -77 -8 -3 -14 1 -14 11 0 26 -10 9 -44 -74 -80 -198 -230
-382 -371 -455 -196 -102 -443 -115 -661 -36 -229 82 -427 274 -513 496 -64
166 -62 134 -67 1182 -3 525 -7 974 -10 998 l-5 42 -2785 0 c-2620 0 -2784 -1
-2784 -17z m1630 -40 c74 -4 126 -8 115 -10 -70 -14 -98 -45 -49 -57 22 -6 24
-9 13 -22 -11 -14 -10 -18 4 -29 14 -10 15 -14 5 -18 -10 -4 -9 -9 4 -19 11
-10 14 -19 7 -29 -14 -22 -11 -29 13 -29 21 0 21 -1 3 -13 -20 -15 -12 -42 11
-33 8 3 14 1 14 -4 0 -6 -10 -11 -22 -11 -21 -2 -21 -2 -3 -6 16 -3 20 -11 19
-38 l-2 -33 97 -7 c53 -3 101 -8 106 -10 6 -2 -196 -4 -447 -5 -252 -1 -470
-2 -485 -3 -16 0 -101 37 -198 85 -438 221 -570 290 -574 299 -3 11 1116 4
1369 -8z m2605 -30 c8 -22 5 -2625 -4 -2788 l-6 -120 -9 105 c-5 58 -11 99
-14 91 -10 -28 -35 -48 -53 -44 -11 3 -19 1 -19 -4 0 -6 -11 -8 -25 -5 -14 2
-41 -3 -61 -13 -30 -14 -38 -15 -45 -4 -6 10 -9 11 -9 2 0 -7 -12 -13 -28 -13
-15 0 -38 -7 -50 -16 -12 -8 -40 -16 -62 -16 l-40 0 -2 -77 -1 -76 -8 80 c-4
44 -8 634 -8 1310 l-2 1230 43 40 c125 115 379 335 389 335 4 0 10 -8 14 -17z
m1262 -630 c-1 -104 -2 -19 -2 187 0 206 1 291 2 188 2 -104 2 -272 0 -375z
m2228 445 c-3 -8 16 -26 42 -43 159 -98 312 -237 291 -262 -6 -7 -16 -13 -23
-13 -10 0 -103 -35 -165 -62 -14 -6 -38 -17 -55 -24 -50 -22 -209 -77 -222
-77 -8 0 -13 -15 -13 -40 l0 -40 -24 22 -24 22 -9 -28 -10 -28 -13 40 c-21 60
-16 210 9 280 28 79 119 198 191 248 29 20 31 21 25 5z m-3263 -210 c15 -14
28 -30 28 -35 -1 -4 -20 -22 -44 -40 l-43 -31 -32 96 c-18 54 -39 107 -47 119
-27 43 -13 37 48 -22 34 -33 74 -72 90 -87z m-131 -48 c2 -25 -1 -45 -6 -45
-6 0 -11 36 -12 80 -1 62 0 72 7 45 5 -19 10 -55 11 -80z m-3073 -160 l237
-240 240 -2 240 -2 -214 -6 c-159 -4 -215 -8 -219 -17 -3 -10 45 -13 215 -15
l218 -2 -215 -6 -215 -5 -2 -195 c-1 -107 -7 -487 -13 -845 -16 -927 -28
-1671 -29 -1732 l-1 -53 -32 0 c-27 1 -48 15 -115 78 -45 42 -154 145 -243
227 l-162 150 6 325 c3 179 13 645 21 1035 8 391 17 838 20 995 6 330 15 550
22 550 2 0 111 -108 241 -240z m1382 -1 c129 -133 236 -249 238 -258 2 -9 6
-170 9 -358 4 -246 2 -343 -6 -343 -6 0 -11 7 -11 16 0 8 -110 128 -245 266
-158 161 -244 256 -240 265 3 8 5 158 5 334 0 175 4 319 8 319 4 0 113 -109
242 -241z m1130 203 c0 -10 -85 -102 -94 -102 -4 0 3 10 15 23 11 12 32 37 46
55 26 33 33 38 33 24z m-702 -449 c-21 -2 -55 -2 -75 0 -21 2 -4 4 37 4 41 0
58 -2 38 -4z m4842 -134 c78 -21 111 -39 72 -39 -12 0 -22 -4 -22 -10 0 -18
-50 -22 -115 -10 -65 12 -111 40 -66 40 14 0 20 4 15 11 -7 11 12 29 31 29 6
0 44 -9 85 -21z m250 -18 c-30 -15 -62 -25 -70 -22 -11 4 -10 6 5 9 11 3 22 7
25 11 7 9 61 29 80 29 8 1 -10 -12 -40 -27z m-5193 -363 c-3 -7 -5 -2 -5 12 0
14 2 19 5 13 2 -7 2 -19 0 -25z m4383 -68 c0 -5 -7 -10 -15 -10 -8 0 -15 5
-15 10 0 6 7 10 15 10 8 0 15 -4 15 -10z m-4383 -42 c-3 -8 -6 -5 -6 6 -1 11
2 17 5 13 3 -3 4 -12 1 -19z m0 -60 c-3 -8 -6 -5 -6 6 -1 11 2 17 5 13 3 -3 4
-12 1 -19z m-957 2 c13 -8 13 -10 -2 -10 -9 0 -20 5 -23 10 -8 13 5 13 25 0z
m583 -7 c-18 -2 -48 -2 -65 0 -18 2 -4 4 32 4 36 0 50 -2 33 -4z m-646 -25
c-3 -8 -6 -5 -6 6 -1 11 2 17 5 13 3 -3 4 -12 1 -19z m-267 -348 c0 -5 -5 -10
-11 -10 -5 0 -7 5 -4 10 3 6 8 10 11 10 2 0 4 -4 4 -10z m2897 -77 c-3 -10 -5
-4 -5 12 0 17 2 24 5 18 2 -7 2 -21 0 -30z m-2920 -5 c-3 -8 -6 -5 -6 6 -1 11
2 17 5 13 3 -3 4 -12 1 -19z m0 -50 c-3 -7 -5 -2 -5 12 0 14 2 19 5 13 2 -7 2
-19 0 -25z m2940 -60 c-3 -8 -6 -5 -6 6 -1 11 2 17 5 13 3 -3 4 -12 1 -19z
m10 -80 c-3 -8 -6 -5 -6 6 -1 11 2 17 5 13 3 -3 4 -12 1 -19z m20 -70 c-3 -8
-6 -5 -6 6 -1 11 2 17 5 13 3 -3 4 -12 1 -19z m2473 -131 c0 -2 -10 -12 -22
-23 l-23 -19 19 23 c18 21 26 27 26 19z m-4496 -86 c4 -5 -3 -7 -14 -4 -23 6
-26 13 -6 13 8 0 17 -4 20 -9z m-37 -17 c-3 -3 -12 -4 -19 -1 -8 3 -5 6 6 6
11 1 17 -2 13 -5z m-182 -14 c13 -5 14 -9 5 -9 -8 0 -24 4 -35 9 -13 5 -14 9
-5 9 8 0 24 -4 35 -9z m123 3 c-16 -2 -40 -2 -55 0 -16 2 -3 4 27 4 30 0 43
-2 28 -4z m2832 -820 c0 -2 -18 10 -40 27 -22 17 -40 34 -40 37 0 2 18 -10 40
-27 22 -17 40 -34 40 -37z m-1580 40 c0 -5 -119 -73 -263 -152 -144 -79 -319
-177 -389 -217 -71 -39 -128 -69 -128 -65 0 4 82 88 183 188 206 205 166 183
407 219 63 9 126 20 140 25 33 10 50 11 50 2z m-2861 -7 c-4 -3 -244 -139
-371 -209 -27 -15 -48 -22 -48 -17 0 5 10 12 22 16 12 3 28 13 36 20 7 8 20
14 28 14 8 0 14 5 14 10 0 6 4 10 9 10 4 0 39 21 77 46 38 25 58 43 45 39 -17
-5 -21 -4 -16 5 4 6 18 10 31 7 14 -2 27 0 31 6 6 9 -25 7 -107 -8 -14 -3 -45
-8 -70 -11 -71 -10 -35 12 40 24 148 24 220 39 227 45 3 4 18 7 31 7 14 0 23
-2 21 -4z m4511 -82 c0 -3 -13 4 -30 16 -16 12 -30 24 -30 26 0 3 14 -4 30
-16 17 -12 30 -24 30 -26z m86 -55 c3 -5 -11 0 -30 12 -20 12 -39 25 -42 30
-3 5 11 0 30 -12 20 -12 39 -25 42 -30z m89 -49 c39 -26 25 -26 -17 0 -18 11
-28 20 -23 20 6 0 24 -9 40 -20z m143 -70 c47 -23 58 -36 15 -18 -30 13 -71
38 -62 38 3 0 24 -9 47 -20z m159 -66 c-3 -3 -12 -4 -19 -1 -8 3 -5 6 6 6 11
1 17 -2 13 -5z m90 -30 c-3 -3 -12 -4 -19 -1 -8 3 -5 6 6 6 11 1 17 -2 13 -5z
m-207 -134 c8 -5 11 -10 5 -10 -5 0 -17 5 -25 10 -8 5 -10 10 -5 10 6 0 17 -5
25 -10z m60 -20 c8 -5 11 -10 5 -10 -5 0 -17 5 -25 10 -8 5 -10 10 -5 10 6 0
17 -5 25 -10z m207 -56 c-3 -3 -12 -4 -19 -1 -8 3 -5 6 6 6 11 1 17 -2 13 -5z"/>
<path d="M7640 3475 c-6 -16 -14 -49 -17 -74 -4 -36 -3 -43 6 -35 12 11 33
124 25 133 -2 2 -8 -9 -14 -24z"/>
<path d="M1616 3023 c9 -52 14 -54 14 -5 0 23 -5 42 -10 42 -7 0 -8 -14 -4
-37z"/>
<path d="M1600 2454 c0 -104 -5 -399 -11 -655 -9 -343 -9 -471 -1 -485 9 -14
12 33 13 201 1 121 2 230 2 243 0 12 3 22 6 22 8 0 3 851 -4 859 -3 2 -5 -81
-5 -185z"/>
<path d="M4700 3020 c0 -5 5 -10 11 -10 5 0 7 5 4 10 -3 6 -8 10 -11 10 -2 0
-4 -4 -4 -10z"/>
<path d="M7671 2704 c0 -11 3 -14 6 -6 3 7 2 16 -1 19 -3 4 -6 -2 -5 -13z"/>
<path d="M7672 2655 c0 -16 2 -22 5 -12 2 9 2 23 0 30 -3 6 -5 -1 -5 -18z"/>
<path d="M7515 2467 c-6 -7 -15 -19 -20 -27 -8 -13 -5 -13 15 1 24 16 38 39
23 39 -4 -1 -13 -6 -18 -13z"/>
<path d="M7421 2404 c0 -11 3 -14 6 -6 3 7 2 16 -1 19 -3 4 -6 -2 -5 -13z"/>
<path d="M1741 2354 c0 -11 3 -14 6 -6 3 7 2 16 -1 19 -3 4 -6 -2 -5 -13z"/>
<path d="M1740 2298 c0 -17 2 -18 15 -4 8 8 15 16 15 19 0 2 -7 4 -15 4 -8 0
-15 -9 -15 -19z"/>
<path d="M7667 2003 c-10 -88 -30 -183 -39 -183 -4 0 -8 -9 -8 -21 0 -19 -28
-91 -51 -132 -6 -11 -8 -21 -5 -24 3 -3 17 21 31 53 47 106 77 207 82 281 6
81 -2 101 -10 26z"/>
<path d="M1892 1030 c0 -14 2 -19 5 -12 2 6 2 18 0 25 -3 6 -5 1 -5 -13z"/>
<path d="M5330 416 c0 -2 8 -10 18 -17 15 -13 16 -12 3 4 -13 16 -21 21 -21
13z"/>
</g>
</svg>
